<svg width="579pt" height="131pt" viewBox="-1 -1 581 133" xmlns="http://www.w3.org/2000/svg"><g id="fontsvg1664781216561" stroke-linecap="round" fill-rule="evenodd" stroke="#000000" stroke-width="0.5mm" fill="#000000"><path d="M 190.503 128.979 L 172.412 128.979 L 172.412 0.073 L 187.793 0.073 L 215.112 77.417 L 213.721 42.261 L 213.721 0.073 L 231.372 0.073 L 231.372 128.979 L 217.456 128.979 L 189.404 48.926 L 190.503 82.764 L 190.503 128.979 Z M 399.316 128.979 L 381.226 128.979 L 381.226 0.073 L 396.606 0.073 L 423.926 77.417 L 422.534 42.261 L 422.534 0.073 L 440.186 0.073 L 440.186 128.979 L 426.27 128.979 L 398.218 48.926 L 399.316 82.764 L 399.316 128.979 Z M 458.789 95.874 L 458.789 0 L 478.418 0 L 478.418 95.508 A 172.893 172.893 0 0 0 478.451 99.045 Q 478.596 106.086 479.367 107.878 A 2.915 2.915 0 0 0 479.37 107.886 Q 480.322 110.083 481.677 111.877 A 3.621 3.621 0 0 0 483.062 112.953 Q 484.302 113.536 486.302 113.646 A 17.76 17.76 0 0 0 487.28 113.672 Q 490.042 113.672 491.782 112.619 A 5.416 5.416 0 0 0 493.359 111.182 A 11.259 11.259 0 0 0 495.076 107.647 A 15.304 15.304 0 0 0 495.593 104.993 Q 495.864 102.508 495.953 99.08 A 138.318 138.318 0 0 0 495.996 95.508 L 495.996 0 L 515.625 0 L 515.625 95.874 Q 515.625 113.672 508.887 122.058 A 20.826 20.826 0 0 1 499.074 128.722 Q 495.584 129.906 491.301 130.276 A 47.176 47.176 0 0 1 487.244 130.444 Q 472.339 130.444 465.564 122.021 Q 459.05 113.924 458.799 97.228 A 89.962 89.962 0 0 1 458.789 95.874 Z M 289.38 128.979 L 265.137 128.979 L 245.142 0.073 L 263.818 0.073 L 272.241 58.301 L 277.441 99.316 L 277.954 99.316 L 282.422 58.301 L 289.453 0.073 L 307.764 0.073 L 289.38 128.979 Z M 156.738 128.979 L 112.646 128.979 L 112.646 0.073 L 155.859 0.073 L 155.859 16.992 L 132.275 16.992 L 132.275 54.492 L 154.688 54.492 L 154.688 71.045 L 132.275 71.045 L 132.275 112.061 L 156.738 112.061 L 156.738 128.979 Z M 365.552 128.979 L 321.46 128.979 L 321.46 0.073 L 364.673 0.073 L 364.673 16.992 L 341.089 16.992 L 341.089 54.492 L 363.501 54.492 L 363.501 71.045 L 341.089 71.045 L 341.089 112.061 L 365.552 112.061 L 365.552 128.979 Z M 578.32 128.979 L 534.229 128.979 L 534.229 0.073 L 577.441 0.073 L 577.441 16.992 L 553.857 16.992 L 553.857 54.492 L 576.27 54.492 L 576.27 71.045 L 553.857 71.045 L 553.857 112.061 L 578.32 112.061 L 578.32 128.979 Z M 54.419 29.224 L 54.419 33.179 A 58.675 58.675 0 0 1 53.84 41.781 Q 51.863 55.058 43.14 58.74 A 17.008 17.008 0 0 1 53.122 67.917 Q 56.909 75.616 56.909 89.136 L 56.909 92.432 A 91.448 91.448 0 0 1 56.374 101.978 Q 55.24 112.008 51.72 118.047 A 21.798 21.798 0 0 1 50.134 120.41 A 20.528 20.528 0 0 1 40.112 127.31 Q 36.601 128.484 32.282 128.832 A 47.157 47.157 0 0 1 28.491 128.979 L 0 128.979 L 0 0.073 L 27.905 0.073 Q 42.039 0.073 48.091 6.504 A 15.11 15.11 0 0 1 48.34 6.775 Q 54.346 13.477 54.419 29.224 Z M 92.578 128.979 L 72.949 128.979 L 72.949 0.073 L 92.578 0.073 L 92.578 128.979 Z M 19.629 66.943 L 19.629 113.745 L 26.587 113.745 A 13.239 13.239 0 0 0 29.681 113.409 A 7.717 7.717 0 0 0 34.79 109.717 Q 36.593 106.617 37.009 99.745 A 74.095 74.095 0 0 0 37.134 95.288 L 37.134 84.888 Q 37.134 75.073 35.229 71.008 A 6.638 6.638 0 0 0 30.466 67.214 A 11.328 11.328 0 0 0 27.905 66.943 L 19.629 66.943 Z M 19.629 15.454 L 19.629 52.222 L 26.88 52.222 Q 31.934 52.222 33.508 48.999 Q 34.967 46.013 35.075 37.18 A 118.534 118.534 0 0 0 35.083 35.742 L 35.083 27.979 Q 35.03 22.597 33.989 19.781 A 6.648 6.648 0 0 0 33.032 17.981 A 5.909 5.909 0 0 0 30.446 16.126 Q 28.713 15.454 26.221 15.454 L 19.629 15.454 Z" vector-effect="non-scaling-stroke"/></g></svg>